<svg width="305" height="290" viewBox="0 0 305 290" fill="none" xmlns="http://www.w3.org/2000/svg">
<path fill-rule="evenodd" clip-rule="evenodd" d="M267.404 147.239C274.573 125.535 274.166 102.444 266.094 80.8199L222.818 92.5086C228.988 109.041 228.441 126.858 221.262 143.093C214.084 159.329 200.692 173.037 183.243 182.012C165.794 190.987 145.303 194.707 125.066 192.573C107.284 190.698 90.6075 184.398 77.0912 174.533C76.9976 160.08 81.6735 145.833 90.6826 133.449C101.412 118.699 117.664 107.449 136.823 101.51C155.981 95.571 176.932 95.288 196.303 100.707L210.487 64.0159C181.434 55.8886 150.011 56.313 121.276 65.221C92.5406 74.129 68.1646 91.0023 52.0714 113.125C49.7831 116.271 47.681 119.497 45.7686 122.791C44.0153 106.155 48.6462 89.4646 58.9986 75.2336C69.7284 60.4836 85.9804 49.2338 105.139 43.2946C124.297 37.3554 145.248 37.0724 164.619 42.4911L178.803 5.80033C149.75 -2.32701 118.327 -1.9026 89.5917 7.00539C60.8566 15.9134 36.4806 32.7867 20.3874 54.9097C4.29399 77.0325 -2.58057 103.118 0.870167 128.968C3.98055 152.268 15.3169 174.155 33.2788 191.787C37.6516 215.888 50.8627 238.246 71.0949 255.634C92.6097 274.124 120.813 285.919 151.164 289.119C181.516 292.32 212.251 286.741 238.422 273.279C264.593 259.817 284.679 239.257 295.445 214.906C306.212 190.555 307.034 163.832 297.778 139.035L267.404 147.239ZM258.398 167.209C246.936 186.953 229.049 203.588 206.738 215.063C180.567 228.525 149.832 234.105 119.48 230.904C113.976 230.323 108.543 229.46 103.207 228.326C103.26 228.372 103.313 228.418 103.366 228.463C117.71 240.791 136.514 248.655 156.75 250.789C176.986 252.923 197.478 249.203 214.927 240.228C232.376 231.252 245.768 217.544 252.946 201.309C257.784 190.368 259.61 178.709 258.398 167.209Z" fill="url(#paint0_linear_178_5)"/>
<defs>
<linearGradient id="paint0_linear_178_5" x1="152.083" y1="36" x2="152.083" y2="290" gradientUnits="userSpaceOnUse">
<stop stop-color="#034077"/>
<stop offset="0.535433" stop-color="white"/>
<stop offset="1" stop-color="#034077"/>
</linearGradient>
</defs>
</svg>
